
<svg id="dollar-image-1.svg" xmlns="http://www.w3.org/2000/svg" width="26" height="26" viewBox="0 0 26 26">
  <defs>
    <style>
      .cls-1 {
        fill: #fff;
      }

      .cls-2 {
        fill: #1d8ce0;
        fill-rule: evenodd;
      }
    </style>
  </defs>
  <circle class="cls-1" cx="13" cy="13" r="13"/>
  <path id="_" data-name="$" class="cls-2" d="M1333.21,555.893a1.923,1.923,0,0,1-1.35.43,1.808,1.808,0,0,1-1.4-.54,2.171,2.171,0,0,1-.5-1.523h-1.9a3.321,3.321,0,0,0,3.21,3.594v1.516h1.25v-1.524a3.559,3.559,0,0,0,2.25-.969,2.915,2.915,0,0,0,.81-2.14,3.284,3.284,0,0,0-.21-1.227,2.841,2.841,0,0,0-.6-0.926,4.094,4.094,0,0,0-.97-0.715,11.851,11.851,0,0,0-1.57-.679,4.008,4.008,0,0,1-1.41-.777,1.455,1.455,0,0,1-.42-1.09,1.544,1.544,0,0,1,.42-1.164,1.612,1.612,0,0,1,1.17-.407,1.429,1.429,0,0,1,1.2.567,2.424,2.424,0,0,1,.44,1.55h1.89a3.912,3.912,0,0,0-.74-2.488,3.071,3.071,0,0,0-2.1-1.152V544.51h-1.25v1.7a3.373,3.373,0,0,0-2.14.992,2.967,2.967,0,0,0-.79,2.133,3.12,3.12,0,0,0,1.82,2.891,11.151,11.151,0,0,0,1.53.644,3.659,3.659,0,0,1,1.41.782,1.51,1.51,0,0,1,.42,1.1A1.484,1.484,0,0,1,1333.21,555.893Z" transform="translate(-1319 -539)"/>
</svg>
