
<svg height="19" viewBox="0 0 10 19" width="10" xmlns="http://www.w3.org/2000/svg"><path d="m9.43622642.00377358-2.3518868-.00377358c-2.64226415 0-4.34981132 1.75188679-4.34981132 4.46339623v2.05792452h-2.36471698c-.20433962 0-.36981132.16566038-.36981132.37v2.98169812c0 .20433963.16566038.36981133.36981132.36981133h2.36471698v7.5237736c0 .2043396.1654717.3698113.36981132.3698113h3.08528302c.20433962 0 .36981132-.1656604.36981132-.3698113v-7.5237736h2.76490566c.20433963 0 .36981132-.1654717.36981132-.36981133l.00113208-2.98169812c0-.0981132-.0390566-.19207547-.10830189-.26150943-.06924528-.06943396-.1635849-.10849057-.26169811-.10849057h-2.76584906v-1.7445283c0-.83849056.19981132-1.26415094 1.29207547-1.26415094l1.58433963-.00056604c.20415094 0 .36962264-.16566038.36962264-.36981132v-2.76867924c0-.20396227-.16528302-.36943397-.36924528-.36981133z" fill="#fff"/></svg>