<svg height="38" viewBox="0 0 100 38" width="100" xmlns="http://www.w3.org/2000/svg"><g fill="none"><path d="m33.2531034 2.52758621c.0014691-.67080682-.2643576-1.31456217-.7386908-1.78889536s-1.1180885-.74015991-1.7888954-.73869085h-28.19793099c-.67080682-.00146906-1.31456217.26435766-1.78889536.73869085s-.74015991 1.11808854-.73869085 1.78889536v28.09931039c.00076098 1.3956319 1.13195422 2.5268252 2.52758621 2.5275862h25.80137929l4.0482759 4.2020689c.1452165.1452169.3637793.1883063.5532462.109072.1894669-.0792344.3122862-.2650886.3108917-.4704513v-6.0944827c.0094572-.0916318.0131427-.1837677.0110345-.2758621zm-13.0868965 25.87793099c-.695117 0-1.2586207-.5635036-1.2586207-1.2586206v-10.7668966c.0003676-.1336351-.052556-.2619029-.1470507-.3563976s-.2227624-.1474183-.3563976-.1470507h-3.5337931c-.1336351-.0003676-.2619029.052556-.3563976.1470507-.0944946.0944947-.1474183.2227625-.1470506.3563976v10.7586207c0 .695117-.5635037 1.2586207-1.2586207 1.2586207h-7.09034487c-.33428522.0001836-.6549116-.1326238-.89115757-.3691286-.23624597-.2365047-.36870233-.5572763-.36815277-.8915611v-21.11862067c-.00018309-.33404596.13243507-.65446286.36864128-.89066906.2362062-.23620621.5566231-.36882437.89066906-.36864128h15.39586207c3.1273745-.00195753 5.8853366 2.04876223 6.7839082 5.04426624.8985717 2.99550397-.2752678 6.22565987-2.8873565 7.94538897l2.7124138 9.037931c.1135318.3832926.0396042.7976821-.1994651 1.1180702-.2390693.3203882-.6152644.5092297-1.0150176.509516h-6.642069z" fill="#233068"/><circle cx="16.631724" cy="11.828276" fill="#1f356f" r="2.527586"/><path d="m28.0117241 26.7751724-2.7137931-9.037931c2.6105542-1.7200462 3.7834484-4.9490411 2.885399-7.94354592-.8980493-2.99450484-3.6543034-5.04515168-6.7805714-5.04472996h-15.38413791c-.33380696 0-.65394206.1326043-.88997922.36864146-.23603717.23603717-.36864147.55617227-.36864147.88997923v21.12896549c0 .695117.56350368 1.2586207 1.25862069 1.2586207h7.07931031c.333807 0 .6539421-.1326043.8899793-.3686415.2360371-.2360371.3686414-.5561722.3686414-.8899792v-10.7668965c-.0003676-.1336352.052556-.2619029.1470507-.3563976s.2227625-.1474183.3563976-.1470507h3.5344828c.1336351-.0003676.2619029.052556.3563975.1470507.0944947.0944947.1474184.2227624.1470507.3563976v10.7668965c0 .695117.5635037 1.2586207 1.2586207 1.2586207h6.642069c.4004255.0059875.7794901-.180192 1.019532-.5007483s.3120123-.7366968.1935714-1.1192517zm-11.3793103-12.4193103c-1.3959473 0-2.5275862-1.1316389-2.5275862-2.5275862 0-1.3959474 1.1316389-2.52758624 2.5275862-2.52758624s2.5275862 1.13163884 2.5275862 2.52758624c.0014691.6708068-.2643577 1.3145621-.7386908 1.7888953-.4743332.4743332-1.1180886.7401599-1.7888954.7386909z" fill="#fff"/><g fill="#233068"><path d="m47.9041379 28.1972414-1.9151724-4.0482759c1.2062116-.3375598 2.0100838-1.475131 1.9255173-2.7248276 0-1.8165517-1.2144828-2.9103448-3.3793104-2.9103448h-3.6331034c-.0778459.0014692-.1405998.0642231-.142069.142069v9.6068965c.0014692.0778459.0642231.1405998.142069.142069h1.0296551c.0778459-.0014692.1405998-.0642231.142069-.142069v-3.8868965h2.5931035l1.8275862 3.9503448c.0219947.0529684.0736811.0875166.1310344.0875862h1.1489656c.0497628-.0043753.0944132-.032338.1200746-.075198s.0292239-.0954231.0095805-.1413537zm-3.3593103-5.0117242h-2.4751724v-3.4993103h2.4620689c1.2910345 0 2 .6786207 2 1.74.0048276 1.0489655-.6841379 1.76-1.9862069 1.76z"/><path d="m68.3655172 24.182069 2.1558621-2.2434483c.0393729-.0439984.0494973-.1069057.0259173-.1610359-.02358-.0541301-.0765402-.0895567-.1355725-.0906882h-1.137931c-.0412131-.002664-.0814513.0132794-.1096552.0434482l-3.0310345 3.184138v-6.2917242c-.0014691-.0778458-.0642231-.1405998-.1420689-.1420689h-.9655173c-.0778458.0014691-.1405997.0642231-.1420689.1420689v9.5958621c.0014692.0778458.0642231.1405998.1420689.142069h.9655173c.0778458-.0014692.1405998-.0642232.1420689-.142069v-1.7510345l1.3351725-1.3896552 1.7289655 3.2172414c.0268625.0470972.0768157.0762804.1310345.0765517h1.0834482c.0521215-.0002246.1003347-.0276747.1271305-.0723813.0267957-.0447066.0282763-.1001668.003904-.1462394z"/><path d="m77.7434483 26.2172414h-.9406897c-.0573534.0000696-.1090397.0346178-.1310345.0875862-.3660398.7032947-1.1129672 1.1239655-1.9041379 1.0724138-.573606.0298142-1.1336124-.1812081-1.5448999-.5821512s-.6365033-.9553937-.621307-1.529573h5.2634483c.051894-.2482432.0750348-.5016357.0689655-.7551724.0402564-.8570964-.2842291-1.6911718-.8931206-2.2957263-.6088914-.6045544-1.445265-.9230695-2.3020518-.8766875-1.8944166.0902163-3.3805719 1.6584523-3.368914 3.55498.0116578 1.8965277 1.5169797 3.4463753 3.4123623 3.5132959 1.3635492.0907158 2.6274488-.7164806 3.1186207-1.9917241.0060045-.0471353-.0073199-.0946945-.0369396-.131849-.0296198-.0371546-.0730137-.0607422-.1203018-.0653924zm-3.042069-3.8186207c.5254975-.027651 1.0377623.1705939 1.407745.5447929.3699828.3741991.5624104.8886774.5288067 1.4138278h-4.037931c.0004036-.5445713.2268006-1.0645502.6251644-1.435851.3983639-.3713007.9329603-.5606165 1.4762149-.5227697z"/><path d="m55.3668966 21.3372414h-.9655173c-.0778458.0014692-.1405998.0642231-.142069.1420689v.9655173c-.5732317-.7414485-1.4713219-1.1576932-2.4075862-1.1158621-1.9151724 0-3.2606896 1.4117242-3.2606896 3.5668966 0 2.1117241 1.3241379 3.5013793 3.1724138 3.5013793.990784.039166 1.9339417-.426312 2.5055172-1.2365517v1.0944827c.0014692.0778459.0642231.1405998.142069.142069h.9655172c.0778459-.0014692.1405998-.0642231.142069-.142069v-6.7731034c-.0007207-.0393893-.0171596-.0768555-.0456568-.1040574s-.0666872-.0418814-.1060673-.0407702zm-3.3372414 5.9310345c-1.2910345 0-2.1558621-.9517242-2.1558621-2.3965518 0-1.4227586.8537931-2.3965517 2.1882759-2.3965517 1.2910344 0 2.1662069.9082759 2.1662069 2.3634483.0006896 1.4662069-.8758621 2.4289655-2.1986207 2.4289655z"/><path d="m85.8737931 18.4924138h-.9655172c-.0778459.0014692-.1405998.0642231-.142069.142069v3.8296551c-.5712163-.7570066-1.4820919-1.1795991-2.4289655-1.1268965-1.882069 0-3.2496552 1.3896552-3.2496552 3.5344827 0 2.1337931 1.3462069 3.5344828 3.2275862 3.5344828.9571555.0366753 1.8705489-.4022079 2.44-1.1724138v1.0282759c.0014692.0778458.0642231.1405998.142069.1420689h.9655172c.0778459-.0014691.1405998-.0642231.142069-.1420689v-9.6068966c.011561-.0399654.0029101-.0830576-.0231801-.1154643s-.0663423-.0500573-.1078544-.0472943zm-3.3358621 8.7758621c-1.2910344 0-2.155862-.9517242-2.155862-2.3965518 0-1.4227586.8537931-2.3965517 2.1882758-2.3965517 1.2910345 0 2.1662069.9082759 2.1662069 2.3634483-.0006896 1.4662069-.875862 2.4296552-2.1986207 2.4296552z"/><path d="m60.6303448 21.3372414c-.8206263-.015217-1.6014377.3530037-2.1117241.995862v-.8537931c-.0014973-.0786392-.0654853-.1417086-.1441379-.1420689h-.9655173c-.0778458.0014692-.1405998.0642231-.1420689.1420689v6.784138c.0014691.0778458.0642231.1405998.1420689.1420689h.9655173c.0778458-.0014691.1405997-.0642231.1420689-.1420689v-.0544828-3.9393103c-.0287681-.4860071.1526436-.9609516.4980895-1.3040224s.8216308-.5212015 1.3074278-.4890811c.9082758 0 1.5317241.5144828 1.5317241 1.8931035v3.8841379c.0014692.0778459.0642231.1405998.142069.142069h.9848276c.0778458-.0014692.1405997-.0642231.1420689-.142069v-4.18c.0103448-1.7627586-1.0041379-2.7365517-2.4924138-2.7365517z"/><path d="m41.9317241 4.76h-1.0282758c-.0778459.00146918-.1405998.06422312-.142069.14206897v9.60689653c.0014692.0778459.0642231.1405998.142069.142069h1.0282758c.0778459-.0014692.1405998-.0642231.142069-.142069v-9.60689653c-.0014692-.07784585-.0642231-.14059979-.142069-.14206897z"/><path d="m54.6227586 10.7124138-1.3462069-.3062069c-.3937931-.0875862-.9517241-.2406897-.9517241-.89655173 0-.62068965.4827586-.95172414 1.2255172-.95172414.6424786-.08608801 1.2394188.34727782 1.3565518.98482759.0060951.07396744.0678509.13092665.1420689.13103448h.9413793c.0415988-.00019464.081085-.01835226.1083095-.04980577.0272244-.0314535.0395321-.07313542.0337595-.11433216-.1206897-1.14896551-1.1158621-1.91517241-2.5717241-1.91517241-1.4993104 0-2.5165518.79862069-2.5165518 2.03517241 0 .86413793.4827587 1.56482763 1.7179311 1.83793103l1.1820689.2758621c.4379311.0875862 1.0282759.275862 1.0282759.9737931 0 .6344827-.5358621.9848276-1.3793104.9848276-.7986206 0-1.3675862-.3393104-1.4882758-.9517242-.0141452-.0680082-.0726685-.1177247-.142069-.1206896h-.937931c-.0415988.0001946-.081085.0183522-.1083094.0498057-.0272245.0314536-.0395322.0731355-.0337596.1143322.1531035 1.1489655 1.2255173 1.882069 2.7137931 1.882069 1.6413793 0 2.6806897-.7986207 2.6806897-2.0793104.0173634-.9608969-.6994021-1.7771551-1.6544828-1.8841379z"/><path d="m91.3882759 12.2331034h-.9958621c-.062924.0011759-.1189667.0400793-.142069.0986207-.2947569.7925368-1.083313 1.2899033-1.9255172 1.2144828-1.3675862 0-2.1662069-.9737931-2.1662069-2.4075862 0-1.54275863.8965517-2.44000001 2.1662069-2.44000001.8492713-.0773692 1.6425605.43207474 1.9255172 1.23655172.0231023.05854144.079145.09744479.142069.09862069h1.0068965c.0441855.0012207.0864218-.0181944.114265-.05252529.0278431-.03433086.0381204-.0796655.027804-.12264712-.3062069-1.41172414-1.5537931-2.26482759-3.1951724-2.26482759-1.9185407.04932365-3.4473087 1.62035132-3.4443126 3.5395236.0029961 1.9191722 1.5366618 3.485419 3.4553471 3.5287523 1.4608268.1081257 2.7943538-.8314375 3.1841379-2.2434483.0076046-.045507-.0048932-.0920758-.0342606-.1276606-.0293673-.0355848-.0727196-.0566901-.1188428-.0578567z"/><path d="m99.1241379 12.4737931h-.9413793c-.0573534.0000696-.1090397.0346179-.1310345.0875862-.3660398.7032947-1.1129672 1.1239655-1.9041379 1.0724138-.573606.0298142-1.1336124-.1812081-1.5448999-.5821512s-.6365033-.9553937-.621307-1.5295729h5.2634483c.0518758-.248246.0750165-.5016364.0689655-.7551724.0402564-.85709652-.2842291-1.6911719-.8931206-2.29572636-.6088914-.60455446-1.445265-.92306954-2.3020518-.87668748-1.8944291.09037444-3.3804617 1.65876457-3.3686187 3.55531114.011843 1.8965465 1.5173466 3.446256 3.4127566 3.5129647 1.3635493.0907159 2.6274489-.7164806 3.1186207-1.9917241.0081354-.0474859-.004387-.0961864-.0344191-.1338583s-.0747175-.060732-.1228223-.0633831zm-3.0420689-3.81862069c.5254974-.02765102 1.0377623.17059389 1.407745.54479294s.5624104.88867735.5288067 1.41382775h-4.0269105c-.0020387-.5433697.2220459-1.06310293.6185592-1.4346297.3965132-.37152676.9297122-.56135659 1.4717996-.52399099z"/><path d="m63.0696552 7.5937931h-.9655173c-.0778458.00146918-.1405998.06422312-.1420689.14206897v3.90620693c0 1.1489655-.6565518 1.9151724-1.6634483 1.9151724-.9517241 0-1.5972414-.4268966-1.5972414-1.7179311v-4.10344823c-.0014692-.07784585-.0642231-.14059979-.142069-.14206897h-.9655172c-.0778458.00146918-.1405998.06422312-.142069.14206897v4.34482763c0 1.5427586.8751725 2.5820689 2.462069 2.5820689.8092555.0462224 1.585745-.325493 2.0572414-.9848276v.8317242c.0014692.0778458.0642231.1405998.1420689.1420689h.9655173c.0778458-.0014691.1405998-.0642231.142069-.1420689v-6.77379313c-.0100191-.0773166-.0732501-.13679418-.1510345-.14206897z"/><path d="m68.4641379 7.76896552c-.1701787-.02722759-.342148-.04175047-.5144827-.04344828-.7500087-.06398294-1.4530353.37207868-1.7289655 1.07241379v-1.06206896c-.0014692-.07784585-.0642232-.14059979-.142069-.14206897h-.9737931c-.0778459.00146918-.1405998.06422312-.142069.14206897v6.77310343c.0014692.0778459.0642231.1405998.142069.142069h.9655172c.0778459-.0014692.1405998-.0642231.142069-.142069v-3.6434483c-.0742893-.5909611.1426197-1.18125148.5818768-1.58350412.4392572-.40225265 1.0463089-.56650978 1.628468-.44063377.0411968.0057726.0828787-.00653507.1143322-.03375953s.0496111-.06671068.0498058-.10830944v-.78827586c.0006631-.07150105-.0519177-.13235303-.1227587-.14206896z"/><path d="m75.9489655 7.5937931h-.9655172c-.0778459.00146918-.1405998.06422312-.142069.14206897v.96551724c-.5730891-.7412441-1.4708714-1.15746522-2.4068965-1.11586207-1.9151725 0-3.2606897 1.41172414-3.2606897 3.56689656 0 2.1117241 1.3241379 3.5013793 3.1724138 3.5013793.9907841.039166 1.9339417-.426312 2.5055172-1.2365517v1.0944827c.0014692.0778459.0642232.1405998.142069.142069h.9655172c.0778459-.0014692.1405998-.0642231.142069-.142069v-6.77586203c-.0029943-.08125631-.0711477-.14478384-.1524138-.14206897zm-3.3372414 5.9310345c-1.2910344 0-2.155862-.9517242-2.155862-2.3965517 0-1.42275866.8537931-2.39655176 2.1882758-2.39655176 1.2910345 0 2.1662069.90827586 2.1662069 2.36344826.0006897 1.4662069-.8855172 2.4289655-2.1986207 2.4289655z"/><path d="m81.2124138 7.5937931c-.8206263-.01521697-1.6014377.3530037-2.1117241.99586207v-.8537931c-.0014692-.07784585-.0642232-.14059979-.142069-.14206897h-.9655173c-.0778458.00146918-.1405997.06422312-.1420689.14206897v6.78413793c.0014692.0778458.0642231.1405998.1420689.142069h.9655173c.0778458-.0014692.1405998-.0642232.142069-.142069v-.0544828-3.9393103c-.0287681-.486007.1526436-.9609516.4980895-1.30402239.3454459-.3430708.8216307-.52120147 1.3074277-.48908106.9082759 0 1.5317241.51448276 1.5317241 1.89310345v3.8841379c.0014692.0778459.0642232.1405998.142069.142069h.9848276c.0778458-.0014692.1405998-.0642231.142069-.142069v-4.1703448c.0082758-1.78068966-1.0062069-2.7462069-2.4944828-2.7462069z"/><path d="m47.1931034 7.5937931c-.8206263-.01521697-1.6014377.3530037-2.1117241.99586207v-.8537931c-.0014692-.07784585-.0642231-.14059979-.142069-.14206897h-.9655172c-.0778458.00146918-.1405998.06422312-.142069.14206897v6.77310343c.0014692.0778459.0642232.1405998.142069.142069h.9655172c.0778459-.0014692.1405998-.0642231.142069-.142069v-3.9937931c-.0287681-.486007.1526436-.96095158.4980895-1.30402237.3454459-.3430708.8216308-.52120147 1.3074278-.48908106.9082758 0 1.5317241.51448275 1.5317241 1.89310343v3.8841379c.0014692.0778459.0642231.1405998.142069.142069h.9848275c.0778459-.0014692.1405998-.0642231.142069-.142069v-4.1593103c0-1.78068966-1.0172414-2.7462069-2.4944828-2.7462069z"/></g></g></svg>